<svg id="svg" version="1.1" xmlns="http://www.w3.org/2000/svg" xmlns:xlink="http://www.w3.org/1999/xlink" width="400" height="96" viewBox="0, 0, 400,96"><g id="svgg"><path id="path0" d="M195.099 12.582 C 195.041 12.810,194.771 13.350,194.497 13.781 C 193.594 15.206,193.854 15.283,195.802 14.165 C 197.220 13.352,198.302 13.102,198.005 13.657 C 197.850 13.948,197.858 14.098,198.045 14.379 C 198.323 14.798,196.485 15.385,194.226 15.597 L 193.036 15.709 192.927 16.396 C 192.706 17.794,192.155 18.997,191.685 19.109 C 190.908 19.295,190.270 19.690,189.150 20.678 C 188.202 21.513,188.061 21.591,188.128 21.239 C 188.230 20.704,187.905 20.333,187.333 20.333 C 186.769 20.333,186.513 20.622,186.387 21.402 L 186.290 22.000 186.999 22.000 C 187.640 22.000,187.686 22.026,187.479 22.277 C 187.208 22.604,185.707 23.329,185.295 23.332 C 184.968 23.334,184.820 23.805,184.878 24.666 C 184.912 25.174,184.847 25.284,184.377 25.519 C 184.080 25.668,183.724 25.883,183.585 25.998 C 183.315 26.223,183.227 27.085,183.492 26.922 C 183.679 26.806,184.001 27.351,183.998 27.781 C 183.995 28.255,182.870 28.884,181.875 28.968 C 180.620 29.073,181.025 28.293,182.620 27.532 C 183.050 27.327,183.167 27.170,183.167 26.794 C 183.167 26.532,183.281 26.096,183.421 25.825 C 183.729 25.229,183.494 24.638,182.674 23.948 C 182.138 23.497,181.961 23.426,180.939 23.253 L 180.295 23.144 180.648 22.815 C 180.843 22.634,181.183 22.128,181.405 21.691 C 181.854 20.803,182.232 20.418,182.493 20.579 C 182.598 20.644,182.668 20.500,182.670 20.218 C 182.671 19.939,182.839 19.592,183.086 19.358 C 183.389 19.070,183.500 18.791,183.500 18.316 C 183.500 17.478,183.220 17.468,181.667 18.250 C 180.275 18.951,180.333 18.946,180.333 18.366 C 180.333 18.109,180.148 17.647,179.922 17.341 C 179.436 16.681,179.474 16.573,180.247 16.428 C 180.901 16.306,181.254 15.608,180.814 15.305 C 180.181 14.870,175.712 15.588,173.901 16.417 C 173.400 16.646,172.942 16.833,172.884 16.833 C 172.826 16.833,171.497 17.422,169.931 18.141 C 165.586 20.137,163.917 20.667,161.974 20.667 C 161.432 20.667,161.210 20.773,160.761 21.250 C 160.147 21.901,159.240 22.049,158.766 21.576 C 158.445 21.255,157.273 21.513,157.011 21.963 C 156.866 22.212,156.843 22.214,156.838 21.984 C 156.828 21.457,156.240 21.125,155.528 21.245 C 154.967 21.340,154.831 21.302,154.612 20.991 C 154.359 20.629,154.355 20.632,154.243 21.229 C 154.117 21.902,153.833 22.050,153.833 21.442 C 153.833 20.694,152.794 20.166,151.952 20.487 C 151.588 20.625,151.500 20.611,151.500 20.414 C 151.500 20.279,151.357 20.080,151.182 19.971 C 150.939 19.819,150.885 19.645,150.952 19.230 C 151.031 18.745,151.004 18.697,150.694 18.778 C 150.425 18.848,150.324 18.772,150.239 18.434 C 150.104 17.894,150.048 17.894,149.624 18.433 C 149.084 19.119,147.500 19.734,147.500 19.258 C 147.500 18.896,147.136 18.167,146.956 18.167 C 146.869 18.167,146.827 18.465,146.862 18.831 L 146.925 19.494 146.330 18.914 C 145.497 18.100,145.161 18.138,145.186 19.042 C 145.197 19.431,145.240 19.619,145.282 19.458 C 145.375 19.102,145.598 19.080,145.726 19.414 C 145.882 19.820,145.256 20.013,143.945 19.963 C 142.599 19.912,142.167 20.103,142.167 20.750 C 142.167 21.096,142.225 21.119,142.906 21.042 C 144.545 20.858,146.037 21.704,145.633 22.590 C 145.400 23.101,145.312 23.101,144.697 22.583 C 144.031 22.023,143.485 22.342,144.084 22.941 C 144.538 23.395,144.344 23.471,143.376 23.218 C 142.084 22.881,141.850 22.748,141.130 21.943 L 140.510 21.250 140.509 21.917 C 140.507 22.683,140.840 23.175,141.625 23.570 C 142.131 23.824,142.356 24.167,142.016 24.167 C 141.854 24.167,141.096 24.791,139.750 26.033 C 138.511 27.178,136.775 30.000,137.310 30.000 C 137.439 30.000,137.436 30.126,137.298 30.429 C 137.059 30.952,137.336 31.208,138.042 31.117 C 138.572 31.048,138.558 31.024,138.305 31.580 C 138.042 32.156,138.309 32.447,138.841 32.163 L 139.217 31.961 138.832 32.502 C 138.386 33.128,137.446 33.584,135.809 33.968 C 134.758 34.215,134.657 34.274,134.740 34.601 C 134.793 34.814,134.728 35.046,134.582 35.168 C 134.372 35.342,134.333 35.305,134.333 34.937 C 134.333 34.091,132.505 34.421,131.293 35.485 C 130.937 35.797,130.650 35.941,130.587 35.839 C 130.315 35.399,128.833 35.944,128.833 36.485 C 128.833 37.020,130.198 37.204,130.487 36.708 C 130.581 36.546,130.659 36.509,130.662 36.625 C 130.667 36.847,131.599 36.922,131.695 36.708 C 131.726 36.640,131.944 36.414,132.180 36.206 L 132.610 35.829 132.539 36.311 C 132.448 36.927,132.757 37.121,133.195 36.725 C 133.772 36.202,135.188 36.298,135.819 36.903 C 136.680 37.728,136.977 38.755,136.470 39.154 C 136.245 39.331,135.924 39.781,135.755 40.155 C 135.389 40.967,135.273 40.993,134.996 40.324 C 134.799 39.848,134.819 39.780,135.306 39.278 C 136.326 38.226,136.131 37.049,134.975 37.280 C 134.640 37.347,134.390 37.285,134.163 37.080 C 133.844 36.791,133.832 36.798,133.729 37.313 C 133.624 37.836,133.618 37.840,133.205 37.569 C 132.588 37.165,131.516 37.338,129.646 38.143 C 127.812 38.933,127.040 39.048,127.340 38.487 C 127.785 37.655,126.979 37.419,125.690 38.004 C 125.291 38.185,124.822 38.333,124.648 38.333 C 124.412 38.333,124.333 38.454,124.333 38.814 C 124.333 39.154,124.236 39.320,124.000 39.382 C 123.754 39.446,123.667 39.609,123.667 40.002 C 123.667 40.408,123.727 40.513,123.917 40.440 C 124.382 40.261,123.740 42.919,123.079 43.911 C 122.801 44.329,122.750 44.690,122.750 46.261 C 122.750 47.636,122.703 48.053,122.569 47.869 C 122.418 47.663,122.330 47.715,122.038 48.186 C 121.845 48.496,121.047 49.378,120.265 50.145 C 118.557 51.821,117.632 53.500,118.417 53.500 C 118.737 53.500,118.744 54.147,118.430 54.752 C 117.954 55.670,118.683 56.147,120.836 56.325 C 122.388 56.453,122.909 56.694,122.930 57.292 C 122.948 57.805,122.833 57.766,122.236 57.055 C 121.617 56.318,121.235 56.383,121.072 57.253 C 120.970 57.794,121.014 57.904,121.492 58.304 C 122.277 58.961,122.345 60.123,121.762 62.904 C 121.294 65.139,121.329 65.500,122.015 65.500 C 122.393 65.500,122.563 65.191,122.993 63.729 L 123.329 62.583 123.229 64.684 C 123.129 66.783,123.130 66.785,123.523 66.916 C 124.172 67.132,124.212 67.110,124.411 66.417 C 124.595 65.772,124.608 65.763,124.807 66.125 C 125.073 66.612,125.200 66.599,126.022 66.003 C 126.822 65.423,127.030 65.475,126.882 66.215 L 126.775 66.750 127.339 66.187 C 127.989 65.537,128.129 65.694,127.835 66.745 C 127.622 67.506,127.723 68.167,128.053 68.167 C 128.182 68.167,128.250 68.505,128.250 69.152 C 128.250 69.922,128.204 70.100,128.042 69.965 C 127.702 69.684,127.789 71.137,128.162 71.957 C 128.381 72.440,128.667 72.752,129.065 72.942 C 129.577 73.185,129.636 73.277,129.553 73.693 C 129.461 74.154,129.733 74.386,129.873 73.966 C 129.909 73.855,130.346 73.724,130.843 73.674 C 131.949 73.563,132.105 73.222,131.259 72.766 C 130.389 72.298,130.108 71.923,130.238 71.407 L 130.348 70.967 130.749 71.400 C 130.970 71.638,131.332 71.833,131.553 71.833 C 132.061 71.833,132.765 72.378,132.896 72.872 C 132.950 73.080,133.234 73.362,133.525 73.500 C 133.955 73.703,134.106 73.923,134.325 74.667 C 134.575 75.518,134.635 75.589,135.172 75.667 C 135.690 75.741,135.814 75.871,136.370 76.917 C 136.711 77.558,136.992 77.990,136.995 77.875 C 137.006 77.412,137.500 77.676,137.500 78.146 C 137.500 78.410,137.387 78.719,137.250 78.833 C 137.039 79.008,137.000 78.976,137.000 78.624 C 137.000 78.018,136.627 77.783,135.868 77.911 C 135.206 78.023,134.833 77.487,134.833 76.424 C 134.833 76.103,134.207 75.514,133.856 75.506 C 133.705 75.502,133.653 75.634,133.703 75.894 C 133.753 76.154,133.675 76.352,133.473 76.478 C 133.149 76.680,133.034 77.667,133.333 77.667 C 133.425 77.667,133.500 77.554,133.500 77.417 C 133.500 76.918,134.120 77.144,134.228 77.682 C 134.355 78.316,135.168 79.104,135.850 79.254 C 136.216 79.334,136.329 79.436,136.258 79.622 C 136.098 80.039,136.337 80.988,136.580 80.895 C 136.707 80.846,136.865 81.019,136.971 81.323 C 137.069 81.604,137.228 81.833,137.325 81.833 C 137.421 81.833,137.500 81.951,137.500 82.095 C 137.500 82.239,137.602 82.459,137.726 82.583 C 137.890 82.748,137.930 83.139,137.873 84.029 L 137.795 85.250 138.439 85.250 L 139.083 85.250 139.071 84.564 C 139.061 84.070,139.143 83.824,139.362 83.687 C 139.532 83.581,139.667 83.567,139.667 83.655 C 139.667 83.742,139.592 83.860,139.500 83.917 C 139.147 84.135,139.336 84.500,139.802 84.500 C 140.272 84.500,140.833 83.725,140.833 83.078 C 140.833 82.729,140.338 82.774,140.311 83.125 C 140.284 83.481,140.035 81.934,140.015 81.282 C 139.997 80.704,141.361 80.639,141.470 81.213 C 141.504 81.390,141.438 81.490,141.305 81.463 C 140.944 81.388,140.912 82.477,141.271 82.614 C 141.432 82.676,141.590 82.645,141.624 82.546 C 141.657 82.447,141.867 82.152,142.092 81.891 C 142.316 81.630,142.500 81.360,142.500 81.292 C 142.500 81.223,142.604 81.167,142.731 81.167 C 142.857 81.167,143.000 81.018,143.048 80.835 C 143.161 80.403,143.935 80.117,144.636 80.249 C 144.970 80.311,145.287 80.274,145.429 80.156 C 145.627 79.992,145.667 80.057,145.667 80.543 C 145.667 80.869,145.552 81.221,145.406 81.342 C 145.077 81.615,144.667 82.398,144.667 82.752 C 144.667 82.983,144.823 83.005,145.798 82.909 L 146.929 82.797 146.866 83.460 C 146.808 84.061,146.842 84.129,147.235 84.205 C 147.620 84.278,147.667 84.234,147.667 83.802 C 147.667 83.227,147.996 82.539,148.483 82.099 C 149.490 81.188,148.286 80.365,147.162 81.196 C 146.507 81.680,146.381 81.501,146.923 80.856 C 147.229 80.493,147.667 80.247,148.388 80.035 C 149.863 79.602,149.981 78.422,148.531 78.600 C 147.998 78.665,147.968 78.653,148.309 78.503 C 148.525 78.409,148.925 78.172,149.198 77.978 C 149.641 77.662,149.739 77.649,150.124 77.854 C 150.388 77.995,150.577 78.019,150.613 77.917 C 150.814 77.347,151.144 76.925,151.347 76.979 C 151.477 77.013,151.712 77.077,151.868 77.121 C 152.046 77.172,152.339 76.999,152.646 76.663 L 153.138 76.123 153.861 76.466 C 154.912 76.966,155.652 77.127,158.179 77.406 C 160.774 77.693,162.356 78.232,163.514 79.224 C 164.153 79.770,164.237 79.800,164.423 79.546 C 164.615 79.284,164.674 79.286,165.310 79.573 C 165.867 79.824,166.039 79.842,166.246 79.670 C 166.449 79.502,166.550 79.501,166.750 79.667 C 166.949 79.832,167.051 79.832,167.250 79.667 C 167.822 79.192,167.259 78.508,166.284 78.495 C 165.940 78.490,165.937 78.478,166.226 78.310 C 166.514 78.143,167.228 78.190,168.125 78.436 C 168.431 78.520,168.500 78.472,168.500 78.175 C 168.500 76.446,170.800 76.955,173.292 79.236 L 173.833 79.732 173.833 79.180 C 173.833 78.759,173.691 78.498,173.230 78.076 L 172.627 77.523 173.329 77.335 C 174.440 77.035,175.368 77.440,176.863 78.875 C 177.154 79.155,177.167 79.144,177.167 78.597 C 177.167 77.813,177.541 77.741,177.755 78.484 C 177.966 79.218,178.500 79.414,178.500 78.757 C 178.500 77.903,177.720 76.591,177.537 77.138 C 177.430 77.459,177.167 77.181,177.167 76.748 C 177.167 76.206,177.820 76.098,180.302 76.228 C 181.374 76.284,183.319 76.378,184.625 76.438 L 187.000 76.546 187.000 76.018 C 187.000 75.702,186.899 75.451,186.750 75.394 C 186.547 75.316,186.386 74.872,186.542 74.819 C 186.565 74.812,187.783 74.632,189.250 74.420 C 192.013 74.021,193.621 73.675,194.727 73.240 C 195.323 73.007,195.388 73.010,195.592 73.286 C 195.865 73.652,196.388 73.407,196.468 72.875 C 196.564 72.233,197.167 72.282,197.167 72.932 L 197.167 73.500 198.208 73.499 C 198.781 73.498,200.075 73.387,201.083 73.252 C 203.459 72.934,203.292 72.912,203.573 73.583 C 203.792 74.109,204.167 74.386,204.167 74.023 C 204.167 73.830,205.926 73.167,206.437 73.167 C 206.994 73.167,207.614 73.602,207.733 74.077 C 207.905 74.759,209.333 73.812,209.333 73.016 C 209.333 72.896,209.418 72.867,209.542 72.944 C 209.656 73.016,209.874 73.055,210.026 73.030 C 210.211 72.999,210.364 73.171,210.489 73.551 C 210.592 73.863,210.862 74.292,211.090 74.506 C 211.345 74.746,211.468 75.005,211.411 75.183 C 211.296 75.547,211.634 75.780,211.768 75.429 C 211.925 75.021,213.120 74.766,213.851 74.986 C 214.674 75.232,214.851 75.667,214.128 75.667 C 213.116 75.667,210.667 76.363,210.667 76.651 C 210.667 76.870,210.881 76.917,211.875 76.917 C 212.540 76.917,214.415 76.978,216.042 77.054 C 218.697 77.177,219.000 77.164,219.000 76.925 C 219.000 76.623,218.562 76.429,216.990 76.035 L 215.896 75.760 216.407 75.261 C 216.904 74.773,216.918 74.770,216.970 75.130 C 217.068 75.814,218.167 75.511,218.167 74.800 C 218.167 74.626,218.045 74.500,217.875 74.499 C 217.298 74.498,218.719 73.806,219.939 73.494 C 220.867 73.257,224.627 72.840,225.893 72.834 C 225.971 72.834,226.007 72.535,225.972 72.170 C 225.933 71.762,225.984 71.478,226.105 71.432 C 226.365 71.332,226.496 71.480,226.520 71.903 C 226.534 72.152,226.575 72.109,226.667 71.750 L 226.794 71.250 226.819 71.750 C 226.840 72.174,226.869 72.206,227.013 71.958 C 227.244 71.563,227.489 71.589,227.382 71.998 C 227.335 72.179,227.347 72.461,227.410 72.623 C 227.576 73.051,227.986 72.270,227.994 71.510 L 228.000 70.937 228.368 71.332 L 228.735 71.726 228.877 71.176 L 229.020 70.626 229.865 70.738 L 230.709 70.850 230.633 69.925 L 230.556 69.000 231.403 69.002 C 232.510 69.005,233.051 69.151,232.861 69.395 C 232.392 69.999,232.920 71.109,233.505 70.747 C 233.781 70.576,233.688 69.696,233.375 69.513 C 232.979 69.282,233.268 69.287,233.701 69.518 C 234.015 69.686,234.038 69.664,233.964 69.273 C 233.918 69.037,233.945 68.883,234.023 68.931 C 234.101 68.979,234.343 68.827,234.560 68.593 C 235.082 68.030,235.119 68.046,235.214 68.875 C 235.258 69.265,235.397 69.936,235.522 70.367 L 235.750 71.151 236.143 70.741 C 236.456 70.416,236.520 70.204,236.456 69.708 C 236.401 69.272,236.475 68.919,236.703 68.540 C 237.119 67.847,237.947 67.344,237.727 67.917 C 237.674 68.055,237.679 68.361,237.739 68.598 C 237.883 69.172,238.281 68.866,238.431 68.067 C 238.493 67.737,238.636 67.500,238.774 67.500 C 238.905 67.500,239.181 67.389,239.389 67.253 C 239.758 67.011,239.764 67.018,239.698 67.586 C 239.621 68.246,239.774 68.297,240.898 67.985 C 241.313 67.870,241.583 67.863,241.648 67.967 C 241.704 68.055,241.900 68.158,242.083 68.194 C 242.373 68.251,242.346 68.301,241.875 68.582 C 241.085 69.053,241.179 69.387,242.191 69.711 C 243.237 70.045,243.538 69.919,243.804 69.032 C 244.051 68.206,244.059 67.610,243.820 67.758 C 243.696 67.835,243.677 67.622,243.758 67.059 C 243.906 66.044,243.933 66.000,244.417 66.000 C 244.933 66.000,245.096 66.269,244.650 66.386 C 244.253 66.490,244.275 67.094,244.675 67.067 C 244.863 67.054,244.906 67.206,244.858 67.712 C 244.816 68.147,244.872 68.422,245.022 68.517 C 245.408 68.761,245.667 68.683,245.667 68.322 C 245.667 68.133,245.929 67.730,246.250 67.427 C 246.814 66.896,247.004 66.292,246.673 66.087 C 246.583 66.032,246.657 65.843,246.839 65.661 C 247.019 65.481,247.172 65.202,247.179 65.042 C 247.186 64.881,247.327 65.050,247.493 65.417 L 247.795 66.083 247.981 65.614 C 248.083 65.356,248.167 65.000,248.167 64.822 C 248.167 64.644,248.281 64.500,248.423 64.500 C 248.624 64.500,248.642 64.569,248.506 64.822 C 248.144 65.498,248.277 65.909,248.755 65.596 C 248.986 65.444,249.249 65.365,249.338 65.420 C 249.429 65.476,249.500 65.305,249.500 65.033 C 249.500 64.117,252.142 63.886,252.178 64.798 C 252.192 65.152,252.422 64.670,252.570 63.979 C 252.657 63.566,252.709 63.545,253.456 63.617 C 254.547 63.721,254.667 63.775,254.667 64.152 C 254.667 64.332,254.742 64.527,254.833 64.583 C 254.926 64.641,255.001 64.515,255.003 64.302 C 255.006 63.730,255.227 63.480,255.838 63.355 C 256.394 63.241,256.840 62.784,256.614 62.558 C 256.545 62.490,255.573 62.535,254.453 62.659 C 251.702 62.963,249.548 63.049,248.784 62.885 L 248.151 62.749 249.833 61.875 C 251.001 61.267,251.703 61.002,252.132 61.007 L 252.750 61.013 252.208 61.248 C 251.669 61.483,251.528 61.856,251.810 62.301 C 251.920 62.474,252.075 62.445,252.557 62.160 C 253.077 61.853,253.167 61.840,253.167 62.067 C 253.167 62.426,253.322 62.402,253.776 61.976 C 254.091 61.679,254.201 61.654,254.412 61.829 C 254.552 61.946,254.667 61.967,254.667 61.877 C 254.667 61.771,254.897 61.774,255.317 61.887 C 256.093 62.094,256.767 61.753,257.047 61.012 C 257.213 60.572,258.082 60.026,258.288 60.232 C 258.344 60.289,258.227 60.508,258.028 60.720 C 257.485 61.299,257.545 61.833,258.153 61.833 C 258.556 61.833,258.659 61.749,258.747 61.345 C 258.869 60.793,259.065 60.595,259.667 60.418 C 260.007 60.318,260.045 60.336,259.875 60.515 C 259.625 60.777,259.594 62.167,259.837 62.167 C 260.075 62.167,260.333 61.424,260.333 60.741 C 260.333 60.247,260.411 60.139,260.916 59.928 C 261.610 59.638,262.035 58.903,261.657 58.646 C 261.525 58.557,260.554 58.500,259.500 58.520 C 256.223 58.584,256.424 58.640,256.375 57.644 L 256.333 56.791 256.995 56.897 C 257.723 57.013,258.292 56.497,258.128 55.870 C 257.930 55.113,259.832 54.220,260.678 54.673 C 260.962 54.825,261.000 54.788,261.000 54.365 C 261.000 53.731,261.459 53.323,261.958 53.513 C 262.165 53.592,262.333 53.733,262.333 53.828 C 262.333 54.199,262.630 53.974,262.718 53.537 C 262.859 52.831,263.511 52.244,264.512 51.922 C 266.420 51.308,267.067 50.567,266.333 49.833 C 266.000 49.500,266.000 49.500,266.409 49.500 C 266.743 49.500,266.838 49.605,266.925 50.072 C 267.052 50.747,267.486 51.005,267.622 50.487 C 267.684 50.249,267.752 50.202,267.838 50.341 C 267.991 50.588,268.333 50.403,268.333 50.073 C 268.333 49.941,268.446 49.833,268.583 49.833 C 268.740 49.833,268.841 49.663,268.853 49.375 L 268.873 48.917 268.978 49.403 C 269.081 49.877,269.500 50.222,269.500 49.832 C 269.500 49.724,269.650 49.445,269.833 49.212 C 270.145 48.816,270.167 48.811,270.167 49.133 C 270.167 49.453,270.278 49.481,271.750 49.530 C 273.145 49.577,273.334 49.550,273.334 49.303 C 273.333 48.848,273.006 48.100,272.711 47.875 C 272.483 47.702,272.478 47.667,272.685 47.667 C 272.821 47.667,273.023 47.757,273.133 47.867 C 273.436 48.170,273.385 46.832,273.078 46.426 C 272.943 46.249,272.833 46.182,272.833 46.278 C 272.833 46.376,272.648 46.418,272.417 46.374 C 271.949 46.285,271.842 46.727,272.179 47.357 C 272.341 47.659,272.326 47.674,272.023 47.513 C 271.839 47.414,271.593 47.071,271.477 46.750 C 271.286 46.221,270.833 45.928,270.833 46.333 C 270.833 46.425,270.731 46.500,270.605 46.500 C 270.449 46.500,270.340 46.819,270.263 47.501 C 270.156 48.450,270.131 48.493,269.805 48.318 C 269.615 48.216,269.254 48.174,269.002 48.225 C 268.422 48.341,268.113 47.808,268.395 47.179 C 268.534 46.870,268.527 46.759,268.363 46.704 C 268.244 46.665,268.392 46.512,268.700 46.358 C 269.518 45.949,269.511 45.450,268.680 44.925 C 267.965 44.474,266.616 44.339,266.039 44.662 C 265.034 45.225,261.453 45.923,262.125 45.425 C 262.503 45.146,262.670 44.167,262.340 44.167 C 262.046 44.167,261.500 44.891,261.500 45.281 C 261.500 45.562,261.405 45.667,261.149 45.667 C 260.897 45.667,260.826 45.592,260.899 45.403 C 260.954 45.258,261.000 44.943,261.000 44.703 C 261.000 44.374,261.047 44.314,261.192 44.458 C 261.336 44.603,261.449 44.519,261.650 44.117 C 261.837 43.743,262.054 43.568,262.375 43.531 C 262.920 43.468,263.001 42.910,262.562 42.241 C 262.335 41.894,262.331 41.843,262.540 41.923 C 263.004 42.101,263.098 40.659,262.645 40.317 C 262.322 40.074,262.295 39.965,262.435 39.478 C 262.616 38.847,263.167 38.596,263.167 39.145 C 263.167 39.785,263.534 39.706,264.267 38.908 L 265.000 38.109 265.394 38.478 L 265.787 38.848 265.990 38.357 C 266.102 38.087,266.375 37.696,266.597 37.487 C 266.819 37.279,267.000 37.010,267.000 36.889 C 267.000 36.768,267.232 36.463,267.515 36.210 C 267.951 35.822,268.016 35.665,267.940 35.195 C 267.862 34.714,267.884 34.667,268.101 34.848 C 268.286 35.001,268.324 35.228,268.245 35.695 L 268.137 36.333 268.860 36.324 C 270.080 36.308,270.694 36.000,271.292 35.106 C 272.195 33.754,272.028 33.477,270.117 33.172 C 269.512 33.075,268.907 32.954,268.771 32.902 C 268.597 32.835,268.504 32.946,268.454 33.279 C 268.401 33.631,268.377 33.575,268.358 33.053 C 268.331 32.297,268.392 32.341,266.883 32.000 C 265.777 31.750,265.444 31.409,266.155 31.253 C 266.709 31.131,267.333 31.268,267.333 31.511 C 267.333 31.899,267.636 31.612,267.732 31.134 C 267.863 30.477,268.269 29.833,268.553 29.833 C 268.816 29.833,269.183 31.150,269.056 31.638 C 268.973 31.953,269.029 32.000,269.492 32.000 C 269.783 32.000,270.167 32.078,270.344 32.173 C 270.634 32.327,270.667 32.287,270.667 31.776 C 270.667 31.115,271.006 30.760,271.492 30.914 C 271.872 31.035,271.931 30.828,271.661 30.322 C 271.518 30.056,271.544 30.000,271.809 30.000 C 272.041 30.000,272.156 30.150,272.224 30.542 C 272.552 32.439,272.677 32.512,274.225 31.711 L 275.107 31.255 275.095 30.209 C 275.082 29.051,274.899 28.856,274.105 29.158 C 273.748 29.294,273.667 29.432,273.667 29.903 C 273.667 30.220,273.597 30.524,273.511 30.576 C 273.276 30.722,272.335 29.635,272.334 29.218 C 272.334 29.017,272.258 28.807,272.167 28.750 C 271.496 28.336,274.098 28.153,275.630 28.506 C 276.330 28.668,276.355 28.658,276.998 27.982 L 277.654 27.293 279.051 27.409 C 280.134 27.499,280.586 27.468,281.058 27.271 C 281.881 26.928,281.872 26.500,281.042 26.500 C 280.389 26.499,280.107 26.373,278.157 25.208 C 276.896 24.455,276.143 24.319,275.659 24.757 C 275.398 24.993,275.345 24.965,275.025 24.421 C 274.618 23.732,273.970 23.415,273.491 23.671 C 273.227 23.813,273.085 23.747,272.682 23.296 C 272.206 22.763,272.158 22.749,270.722 22.717 C 269.912 22.699,269.081 22.680,268.875 22.676 C 268.551 22.668,268.500 22.577,268.500 22.004 C 268.500 21.094,268.488 21.088,263.167 19.552 C 261.773 19.150,260.749 18.658,259.738 17.908 C 259.388 17.648,259.150 17.575,258.988 17.678 C 258.592 17.928,257.873 17.853,257.296 17.501 C 256.385 16.945,255.755 17.049,255.288 17.834 C 255.069 18.201,254.836 18.447,254.769 18.380 C 254.703 18.314,254.071 18.240,253.366 18.216 C 252.661 18.192,251.933 18.163,251.750 18.152 C 251.567 18.141,250.947 17.976,250.373 17.785 L 249.330 17.437 248.873 17.778 C 247.725 18.634,250.071 19.442,251.708 18.754 C 251.929 18.661,252.000 18.711,252.000 18.962 C 252.000 19.364,252.413 19.740,252.677 19.577 C 252.782 19.512,252.739 19.655,252.582 19.895 C 252.425 20.135,252.336 20.432,252.383 20.556 C 252.445 20.718,252.357 20.760,252.070 20.705 C 251.850 20.663,251.711 20.564,251.760 20.484 C 252.234 19.717,251.219 19.551,250.578 20.292 C 249.966 20.998,249.412 20.810,249.301 19.859 C 249.237 19.306,248.683 19.150,248.553 19.648 C 248.486 19.904,248.393 19.956,248.190 19.850 C 248.040 19.772,247.767 19.769,247.583 19.843 C 247.016 20.071,246.694 20.014,246.583 19.667 C 246.414 19.133,246.167 19.282,246.167 19.917 C 246.167 20.581,245.135 20.776,244.388 20.253 C 244.059 20.023,244.028 20.034,243.931 20.419 C 243.772 21.051,242.412 21.042,242.291 20.408 C 242.221 20.044,242.281 19.969,242.706 19.884 C 243.199 19.785,243.202 19.777,243.091 18.937 C 242.920 17.650,242.556 17.723,242.191 19.118 C 242.005 19.830,241.167 20.831,241.167 20.341 C 241.167 19.740,240.635 20.290,240.380 21.154 C 240.058 22.245,239.544 22.550,237.625 22.783 C 236.740 22.891,236.555 23.361,237.093 24.130 C 237.328 24.465,237.328 24.500,237.093 24.500 C 236.950 24.500,236.833 24.567,236.833 24.649 C 236.833 24.730,236.665 24.843,236.458 24.900 C 235.966 25.034,235.260 25.672,234.839 26.363 C 234.653 26.667,234.501 26.835,234.501 26.735 C 234.500 26.635,234.313 26.468,234.083 26.364 C 233.829 26.248,233.667 26.036,233.667 25.819 C 233.667 25.546,233.600 25.492,233.375 25.587 C 232.501 25.954,231.327 25.607,230.774 24.816 C 230.251 24.071,228.833 23.519,228.833 24.061 C 228.833 24.572,228.154 25.167,227.571 25.167 C 227.053 25.167,227.000 25.211,227.000 25.646 C 227.000 26.300,226.665 26.555,226.093 26.337 C 225.487 26.107,225.001 26.123,224.935 26.375 C 224.471 28.145,224.157 28.833,223.813 28.833 C 223.582 28.833,223.500 28.712,223.500 28.370 C 223.500 27.827,223.084 27.167,222.741 27.167 C 222.568 27.167,222.500 26.964,222.500 26.451 C 222.500 25.638,221.521 25.144,220.602 25.493 C 220.013 25.717,219.780 25.385,220.041 24.694 C 220.462 23.578,218.900 22.728,216.945 23.011 C 216.379 23.093,215.512 23.161,215.018 23.163 L 214.120 23.167 214.216 23.979 L 214.313 24.791 213.401 24.974 C 212.900 25.075,211.949 25.433,211.287 25.769 C 210.310 26.265,209.888 26.384,209.050 26.399 C 208.097 26.415,207.966 26.465,207.383 27.027 C 206.684 27.701,205.846 27.994,204.583 28.006 C 203.347 28.018,202.362 28.249,201.812 28.656 L 201.322 29.018 201.424 28.613 C 201.521 28.229,201.477 28.202,200.570 28.089 C 199.287 27.929,199.167 27.867,199.167 27.373 C 199.167 26.972,199.184 26.964,199.471 27.224 C 199.877 27.591,200.040 27.573,200.471 27.114 C 201.025 26.524,200.941 26.196,200.221 26.135 C 199.335 26.060,199.362 25.745,200.283 25.407 C 201.698 24.889,202.161 24.000,201.015 24.000 C 200.743 24.000,200.473 23.925,200.417 23.833 C 200.360 23.742,200.424 23.667,200.559 23.667 C 200.693 23.667,201.003 23.423,201.247 23.125 C 201.490 22.827,201.797 22.451,201.928 22.290 C 202.232 21.916,202.235 21.500,201.934 21.500 C 201.288 21.500,201.472 20.688,202.253 20.092 C 202.954 19.558,203.167 19.556,203.167 20.083 C 203.167 20.343,203.261 20.500,203.417 20.500 C 203.567 20.500,203.667 20.346,203.667 20.112 C 203.667 19.781,203.736 19.735,204.142 19.794 C 204.552 19.854,204.738 19.725,205.500 18.849 C 206.481 17.722,206.691 17.637,206.973 18.258 C 207.221 18.801,207.221 18.801,206.875 18.773 C 206.643 18.755,206.574 18.903,206.539 19.500 C 206.515 19.912,206.478 20.475,206.456 20.750 C 206.420 21.207,206.457 21.245,206.884 21.195 C 207.430 21.131,207.833 21.411,207.833 21.854 C 207.833 22.026,207.908 22.167,208.000 22.167 C 208.092 22.167,208.167 22.063,208.167 21.936 C 208.167 21.595,209.267 20.587,210.116 20.150 C 210.523 19.940,211.006 19.559,211.189 19.301 C 211.459 18.922,211.581 18.865,211.834 19.000 C 212.390 19.298,212.529 19.198,212.471 18.542 C 212.421 17.962,212.447 17.920,212.833 17.960 C 213.350 18.015,213.408 18.012,214.343 17.898 C 214.920 17.827,215.156 17.869,215.325 18.073 C 215.637 18.449,215.400 18.612,215.030 18.277 C 214.612 17.899,214.500 17.928,214.500 18.416 C 214.500 19.177,215.715 19.585,217.957 19.576 C 219.684 19.570,220.745 19.309,220.067 19.057 C 219.966 19.020,220.167 18.705,220.514 18.358 C 222.114 16.758,220.987 15.506,218.689 16.330 C 217.538 16.743,215.443 16.745,212.956 16.337 C 212.385 16.243,210.302 15.976,208.328 15.745 C 203.496 15.178,203.138 15.044,206.417 15.028 C 209.601 15.013,211.667 14.676,211.667 14.171 C 211.667 13.982,211.510 13.964,210.167 13.992 C 209.662 14.003,208.509 13.821,207.604 13.589 C 206.698 13.357,205.704 13.167,205.395 13.167 C 204.912 13.167,204.833 13.110,204.833 12.764 C 204.833 11.989,202.669 12.003,199.633 12.799 C 198.955 12.977,198.833 12.927,198.833 12.472 C 198.833 11.913,195.240 12.019,195.099 12.582 M185.743 15.384 C 185.623 15.863,185.776 16.500,186.011 16.500 C 186.284 16.500,186.178 17.438,185.874 17.713 C 185.712 17.860,185.208 18.002,184.749 18.031 L 183.917 18.083 183.945 18.886 C 183.991 20.209,184.103 20.320,184.686 19.612 C 185.445 18.692,185.700 18.615,188.365 18.511 C 190.791 18.415,190.819 18.410,191.325 17.925 C 192.096 17.186,192.542 15.150,191.875 15.412 C 191.715 15.475,190.774 15.664,189.785 15.832 C 188.796 15.999,187.882 16.223,187.754 16.330 C 187.563 16.488,187.524 16.430,187.536 16.004 C 187.563 15.060,185.963 14.507,185.743 15.384 M182.667 16.205 C 182.667 17.275,182.670 17.283,183.125 17.267 C 183.666 17.247,183.886 16.552,183.432 16.298 C 183.286 16.217,183.167 16.013,183.167 15.845 C 183.167 15.678,183.054 15.447,182.917 15.333 C 182.699 15.153,182.667 15.265,182.667 16.205 M221.667 16.978 C 221.667 17.265,221.592 17.500,221.500 17.500 C 221.408 17.500,221.333 17.688,221.333 17.917 C 221.333 18.146,221.390 18.333,221.460 18.333 C 221.529 18.333,221.560 18.662,221.528 19.063 C 221.472 19.769,221.484 19.790,221.901 19.710 C 222.378 19.619,222.516 18.916,222.133 18.533 C 221.978 18.378,221.978 18.333,222.133 18.333 C 222.455 18.333,222.364 17.342,222.000 16.879 L 221.667 16.455 221.667 16.978 M244.250 17.336 C 243.464 17.636,242.907 18.698,243.430 18.899 C 244.232 19.207,244.747 18.675,244.633 17.656 C 244.592 17.285,244.527 17.231,244.250 17.336 M211.422 17.741 C 212.473 18.181,212.225 18.447,211.117 18.069 L 210.341 17.805 209.712 18.401 C 208.918 19.154,208.666 19.150,207.984 18.375 L 207.434 17.750 208.425 17.653 C 210.212 17.478,210.836 17.497,211.422 17.741 M236.444 17.803 C 235.982 18.314,236.090 18.776,236.700 18.898 C 237.729 19.104,237.968 18.323,237.060 17.721 C 236.767 17.526,236.685 17.537,236.444 17.803 M238.258 18.057 C 237.756 18.716,237.720 19.000,238.138 19.000 C 238.547 19.000,239.167 18.316,239.167 17.864 C 239.167 17.328,238.746 17.418,238.258 18.057 M246.614 17.783 C 246.224 18.415,246.310 19.167,246.773 19.164 C 247.553 19.160,247.748 18.948,247.564 18.306 C 247.411 17.771,246.822 17.447,246.614 17.783 M179.167 19.174 C 179.167 19.637,177.420 20.667,176.634 20.667 C 176.330 20.667,176.329 20.651,176.610 20.280 C 176.803 20.023,177.025 19.916,177.265 19.962 C 177.807 20.066,178.292 19.733,178.415 19.174 C 178.513 18.729,179.167 18.729,179.167 19.174 M138.444 19.111 C 138.273 19.283,138.313 19.667,138.503 19.667 C 138.597 19.667,138.980 19.860,139.355 20.097 C 140.016 20.514,140.833 20.555,140.833 20.171 C 140.833 19.666,138.794 18.761,138.444 19.111 M201.736 19.101 C 202.143 19.257,202.050 19.619,201.500 20.026 C 201.225 20.230,201.000 20.490,201.000 20.605 C 201.000 20.935,200.709 21.029,200.359 20.811 C 200.048 20.617,200.054 20.584,200.533 19.805 C 201.021 19.013,201.213 18.900,201.736 19.101 M188.200 19.367 C 187.721 19.846,187.967 20.112,188.875 20.097 C 189.960 20.080,190.292 19.467,189.321 19.273 C 188.583 19.125,188.429 19.138,188.200 19.367 M184.500 20.348 C 183.672 20.841,183.500 21.126,183.500 22.003 L 183.500 22.776 184.393 22.345 C 185.655 21.735,186.478 20.667,185.686 20.667 C 185.605 20.667,185.500 20.517,185.452 20.333 C 185.342 19.915,185.225 19.917,184.500 20.348 M215.083 20.439 C 214.079 20.747,213.823 20.953,214.168 21.171 C 214.897 21.632,217.907 21.094,217.799 20.523 C 217.727 20.148,216.186 20.100,215.083 20.439 M254.065 20.763 C 254.134 20.941,254.006 21.000,253.552 21.000 C 252.966 21.000,252.957 20.991,253.240 20.678 C 253.550 20.335,253.915 20.373,254.065 20.763 M149.667 21.167 C 149.667 21.448,149.556 21.500,148.949 21.500 C 148.108 21.500,147.604 21.806,147.694 22.261 C 147.746 22.522,147.900 22.583,148.504 22.583 C 149.224 22.583,149.252 22.602,149.302 23.125 C 149.365 23.776,149.347 23.779,148.567 23.250 C 148.230 23.021,147.851 22.833,147.727 22.833 C 146.885 22.833,147.684 21.491,148.761 21.097 C 149.633 20.778,149.667 20.780,149.667 21.167 M258.465 21.276 C 259.197 21.273,259.686 21.397,260.583 21.817 C 261.269 22.137,262.140 22.400,262.695 22.453 C 263.402 22.521,263.617 22.601,263.552 22.772 C 263.359 23.275,259.856 22.844,257.797 22.063 L 256.564 21.595 256.990 21.226 C 257.282 20.974,257.432 20.924,257.465 21.069 C 257.498 21.210,257.830 21.279,258.465 21.276 M255.311 21.224 C 255.414 21.347,255.448 21.496,255.389 21.556 C 255.264 21.681,254.833 21.363,254.833 21.146 C 254.833 20.927,255.101 20.970,255.311 21.224 M262.516 21.603 C 262.709 21.835,262.697 21.864,262.425 21.811 C 262.252 21.777,262.080 21.656,262.042 21.542 C 261.943 21.244,262.252 21.284,262.516 21.603 M203.667 23.750 C 202.737 24.576,202.635 24.614,202.335 24.252 C 201.832 23.646,201.589 25.954,202.065 26.814 L 202.285 27.211 202.469 26.683 C 202.596 26.319,202.838 26.078,203.249 25.906 C 203.879 25.643,204.167 25.150,204.167 24.334 C 204.167 23.966,204.252 23.844,204.542 23.803 C 204.783 23.769,204.936 23.616,204.970 23.375 C 205.054 22.786,204.607 22.915,203.667 23.750 M146.395 23.746 C 146.302 23.988,145.437 24.500,145.121 24.500 C 144.708 24.500,145.910 23.604,146.453 23.507 C 146.473 23.503,146.447 23.611,146.395 23.746 M266.170 23.921 C 266.286 24.060,266.336 24.220,266.281 24.275 C 266.110 24.445,265.667 24.191,265.667 23.922 C 265.667 23.595,265.900 23.595,266.170 23.921 M143.833 24.898 C 143.833 24.933,143.612 24.995,143.342 25.034 C 143.072 25.074,142.889 25.045,142.935 24.970 C 143.018 24.836,143.833 24.771,143.833 24.898 M271.495 28.958 C 271.491 29.744,271.456 29.859,271.304 29.597 C 271.066 29.186,270.845 28.211,270.964 28.092 C 271.306 27.749,271.500 28.064,271.495 28.958 M263.500 29.646 C 263.500 29.726,263.547 30.026,263.604 30.313 C 263.734 30.960,263.429 31.002,262.481 30.469 C 261.693 30.027,261.680 29.931,262.375 29.708 C 263.070 29.485,263.500 29.461,263.500 29.646 M276.505 29.911 C 276.202 30.276,276.455 30.503,277.288 30.615 C 277.947 30.703,278.401 30.326,278.047 29.985 C 277.739 29.688,276.730 29.640,276.505 29.911 M138.794 30.436 C 138.685 30.675,138.567 30.785,138.532 30.680 C 138.497 30.575,138.560 30.379,138.671 30.244 C 138.974 29.880,139.017 29.947,138.794 30.436 M276.871 30.945 C 276.619 31.046,276.167 31.877,276.167 32.239 C 276.167 32.515,277.439 32.447,278.042 32.138 C 278.971 31.662,277.872 30.542,276.871 30.945 M224.622 31.822 C 224.999 32.583,224.800 33.382,224.186 33.577 C 223.592 33.766,223.167 34.477,223.167 35.282 C 223.167 35.688,223.098 35.978,223.015 35.926 C 222.700 35.731,222.333 36.044,222.333 36.508 C 222.333 37.006,222.571 37.289,222.748 37.003 C 222.969 36.645,223.167 36.859,223.169 37.458 C 223.172 38.176,223.379 38.595,223.648 38.428 C 223.754 38.363,223.833 38.425,223.833 38.573 C 223.833 38.716,223.908 38.833,224.000 38.833 C 224.092 38.833,224.167 38.694,224.167 38.523 C 224.167 38.353,224.214 37.865,224.273 37.440 C 224.361 36.792,224.334 36.667,224.106 36.667 C 223.754 36.667,223.759 36.432,224.118 36.073 C 224.346 35.844,224.416 35.834,224.476 36.019 C 224.517 36.146,224.608 36.288,224.679 36.335 C 224.749 36.382,224.697 36.899,224.561 37.484 C 224.297 38.630,224.357 39.091,224.751 38.939 C 225.301 38.728,224.953 39.280,224.260 39.717 C 223.284 40.334,222.471 40.462,221.902 40.089 C 221.593 39.887,221.298 39.834,220.892 39.910 L 220.320 40.018 220.848 38.967 C 221.138 38.389,221.526 37.703,221.711 37.442 C 222.022 37.001,222.028 36.929,221.792 36.434 C 221.527 35.879,221.953 34.848,222.347 35.092 C 222.688 35.303,222.893 34.366,222.603 33.923 C 222.198 33.306,221.546 33.351,221.266 34.017 C 221.023 34.597,220.833 34.372,220.833 33.502 C 220.833 33.115,220.892 33.047,221.164 33.118 C 221.814 33.288,222.299 33.023,222.605 32.330 C 222.890 31.685,223.301 31.497,223.201 32.059 C 223.173 32.216,223.262 32.333,223.409 32.333 C 223.581 32.333,223.667 32.176,223.667 31.861 C 223.667 30.934,224.173 30.913,224.622 31.822 M233.753 32.444 C 233.987 32.678,234.053 32.684,234.179 32.485 C 234.305 32.286,234.328 32.289,234.328 32.500 C 234.328 32.981,234.050 33.249,233.782 33.027 C 233.587 32.865,233.518 32.881,233.430 33.108 C 233.334 33.359,233.293 33.350,233.063 33.022 C 232.624 32.395,233.212 31.903,233.753 32.444 M252.309 32.920 C 252.355 32.966,252.178 33.228,251.915 33.502 C 251.381 34.059,250.883 34.184,251.093 33.708 C 251.163 33.548,251.228 33.242,251.236 33.029 C 251.249 32.664,251.979 32.590,252.309 32.920 M242.846 33.212 C 242.839 33.279,242.833 33.596,242.833 33.917 C 242.833 34.237,242.777 34.500,242.708 34.499 C 242.640 34.499,242.581 34.161,242.579 33.748 C 242.576 33.335,242.638 33.018,242.716 33.044 C 242.794 33.070,242.853 33.146,242.846 33.212 M267.750 33.833 C 267.807 33.925,267.741 34.000,267.603 34.000 C 267.466 34.000,267.307 33.925,267.250 33.833 C 267.193 33.742,267.259 33.667,267.397 33.667 C 267.534 33.667,267.693 33.742,267.750 33.833 M272.445 34.031 C 271.919 34.864,271.929 35.167,272.483 35.167 C 272.822 35.167,273.049 35.054,273.171 34.825 C 273.613 34.000,272.933 33.258,272.445 34.031 M219.869 34.875 C 219.796 35.987,219.565 36.333,218.897 36.333 C 218.692 36.333,218.372 36.527,218.185 36.764 L 217.847 37.195 217.738 36.761 C 217.652 36.418,217.720 36.256,218.065 35.985 C 218.558 35.597,218.689 34.667,218.250 34.667 C 218.112 34.667,218.000 34.587,218.000 34.489 C 218.000 34.391,218.133 34.353,218.296 34.405 C 218.458 34.456,218.852 34.353,219.171 34.175 C 219.967 33.731,219.946 33.710,219.869 34.875 M257.917 34.121 C 258.735 34.230,259.418 34.780,259.144 35.110 C 258.852 35.462,258.550 35.377,257.855 34.750 C 257.500 34.429,257.087 34.167,256.938 34.167 C 256.789 34.167,256.667 34.084,256.667 33.982 C 256.667 33.873,256.785 33.846,256.958 33.915 C 257.119 33.980,257.550 34.073,257.917 34.121 M275.208 33.944 C 274.784 34.115,274.986 34.622,275.521 34.729 C 276.366 34.898,276.500 34.858,276.500 34.436 C 276.500 33.950,275.828 33.694,275.208 33.944 M263.000 34.333 C 263.000 34.425,262.846 34.500,262.657 34.500 C 262.468 34.500,262.360 34.425,262.417 34.333 C 262.473 34.242,262.628 34.167,262.760 34.167 C 262.892 34.167,263.000 34.242,263.000 34.333 M232.456 34.667 C 232.810 34.667,233.202 34.573,233.326 34.458 C 233.450 34.344,233.277 34.617,232.942 35.066 C 232.607 35.514,232.333 36.019,232.333 36.187 C 232.333 36.433,232.261 36.465,231.958 36.353 C 231.752 36.277,231.490 36.248,231.375 36.288 C 231.223 36.341,231.167 36.085,231.167 35.341 C 231.167 34.385,231.187 34.332,231.489 34.494 C 231.666 34.589,232.101 34.667,232.456 34.667 M246.375 34.509 C 246.719 34.604,247.000 34.741,247.000 34.813 C 247.000 35.089,246.787 35.133,246.292 34.961 C 245.844 34.804,245.741 34.828,245.484 35.145 L 245.190 35.509 245.136 35.053 C 245.099 34.731,244.960 34.563,244.667 34.482 C 244.343 34.392,244.417 34.363,245.000 34.351 C 245.412 34.342,246.031 34.413,246.375 34.509 M248.333 34.684 C 248.333 34.766,248.183 34.833,248.000 34.833 C 247.675 34.833,247.566 34.657,247.766 34.456 C 247.900 34.322,248.333 34.497,248.333 34.684 M139.512 34.712 C 139.492 34.912,139.263 34.873,139.192 34.658 C 139.155 34.548,139.215 34.488,139.325 34.525 C 139.435 34.562,139.519 34.646,139.512 34.712 M249.263 34.950 C 249.202 35.520,248.833 35.670,248.833 35.125 C 248.833 34.903,248.883 34.672,248.944 34.611 C 249.178 34.378,249.309 34.517,249.263 34.950 M249.931 35.124 C 249.749 35.306,249.624 35.017,249.755 34.716 C 249.879 34.430,249.888 34.430,249.957 34.721 C 249.997 34.889,249.985 35.070,249.931 35.124 M264.206 35.885 C 264.557 36.387,263.973 36.686,262.890 36.559 C 262.287 36.488,261.925 36.522,261.753 36.664 C 261.535 36.845,261.500 36.791,261.500 36.270 C 261.500 35.701,261.531 35.667,262.042 35.664 C 262.685 35.661,262.881 35.548,263.157 35.023 L 263.365 34.630 263.680 35.107 C 263.853 35.369,264.090 35.719,264.206 35.885 M267.249 34.896 C 267.551 35.116,267.549 35.129,267.190 35.243 C 266.733 35.388,266.189 35.028,266.534 34.809 C 266.826 34.623,266.887 34.631,267.249 34.896 M257.583 36.328 C 257.858 36.468,258.128 36.645,258.184 36.720 C 258.239 36.795,258.801 36.916,259.434 36.989 C 260.066 37.063,260.396 37.133,260.167 37.145 C 259.938 37.158,259.225 37.354,258.583 37.581 C 257.163 38.083,256.511 38.104,255.955 37.667 C 255.494 37.304,255.079 37.237,254.917 37.500 C 254.672 37.896,253.699 37.676,253.258 37.125 C 252.884 36.658,252.796 36.618,252.620 36.833 C 252.162 37.396,251.868 37.530,251.511 37.339 C 251.122 37.131,251.036 36.794,251.408 36.936 C 251.650 37.029,252.667 36.528,252.667 36.316 C 252.667 35.921,252.017 35.467,251.452 35.467 C 250.810 35.467,250.616 35.252,251.125 35.104 C 251.806 34.907,254.305 35.114,254.582 35.391 C 255.104 35.914,256.828 35.775,256.857 35.208 C 256.875 34.866,256.906 34.918,256.982 35.411 C 257.061 35.927,257.193 36.129,257.583 36.328 M219.891 38.125 C 219.948 38.652,220.040 39.277,220.095 39.514 C 220.189 39.919,220.125 39.972,219.056 40.371 C 218.429 40.605,217.467 40.989,216.917 41.225 C 215.947 41.640,215.915 41.643,215.863 41.323 C 215.782 40.827,216.160 39.833,216.430 39.833 C 216.588 39.833,216.667 39.646,216.667 39.268 C 216.667 38.176,217.457 37.021,217.846 37.546 C 217.898 37.617,218.198 37.564,218.512 37.427 C 219.596 36.957,219.774 37.048,219.891 38.125 M261.994 39.489 C 262.257 39.981,262.205 40.033,261.750 39.735 C 261.286 39.430,261.205 39.167,261.577 39.167 C 261.712 39.167,261.899 39.312,261.994 39.489 M267.225 39.756 C 267.170 39.897,267.248 40.147,267.396 40.311 C 267.773 40.727,267.741 41.167,267.333 41.167 C 267.071 41.167,267.000 41.278,267.000 41.686 C 267.000 42.165,267.037 42.199,267.490 42.133 C 267.914 42.070,267.958 42.100,267.823 42.353 C 267.619 42.734,267.620 43.715,267.824 43.589 C 268.174 43.373,269.000 41.957,269.000 41.575 C 269.000 41.117,268.948 41.093,268.489 41.339 C 268.034 41.583,268.044 40.990,268.500 40.705 C 268.683 40.591,268.833 40.397,268.833 40.274 C 268.833 39.650,267.438 39.201,267.225 39.756 M215.611 40.428 C 215.730 40.739,214.810 41.739,213.583 42.632 C 213.125 42.966,212.713 43.287,212.667 43.346 C 212.621 43.405,212.340 43.578,212.042 43.731 C 211.496 44.011,211.301 43.873,211.734 43.514 C 211.862 43.407,212.014 43.135,212.070 42.910 C 212.150 42.590,212.281 42.500,212.665 42.500 C 213.269 42.500,214.833 41.073,214.833 40.521 C 214.833 40.096,215.455 40.022,215.611 40.428 M127.426 40.589 C 127.249 40.723,126.953 40.833,126.770 40.833 C 126.441 40.833,126.441 40.830,126.760 40.589 C 126.938 40.454,127.233 40.344,127.417 40.344 C 127.746 40.344,127.746 40.347,127.426 40.589 M129.333 40.583 C 129.333 40.721,129.268 40.833,129.187 40.833 C 129.107 40.833,128.947 40.721,128.833 40.583 C 128.660 40.374,128.684 40.333,128.980 40.333 C 129.183 40.333,129.333 40.440,129.333 40.583 M263.459 40.875 C 263.077 41.168,262.864 42.375,263.218 42.239 C 263.479 42.139,263.989 42.546,264.302 43.105 C 264.567 43.579,264.760 43.219,264.545 42.651 C 264.317 42.047,264.526 41.905,265.402 42.069 C 266.033 42.188,266.500 41.873,266.500 41.329 C 266.500 40.762,264.078 40.400,263.459 40.875 M126.172 41.560 C 126.000 42.321,125.864 42.487,125.669 42.171 C 125.551 41.979,125.459 42.012,125.184 42.342 C 124.997 42.567,124.842 42.661,124.839 42.552 C 124.836 42.442,124.908 42.307,125.000 42.250 C 125.092 42.193,125.167 41.964,125.167 41.741 C 125.167 41.440,125.307 41.275,125.708 41.108 C 126.375 40.829,126.344 40.798,126.172 41.560 M137.667 41.883 C 137.667 42.094,137.741 42.341,137.831 42.431 C 138.437 43.037,135.969 44.573,135.207 44.065 L 134.750 43.759 135.823 43.588 C 136.990 43.402,136.880 43.528,137.236 41.958 C 137.362 41.403,137.667 41.350,137.667 41.883 M259.417 42.000 C 259.102 42.347,258.667 42.449,258.667 42.175 C 258.667 41.983,259.161 41.679,259.484 41.672 C 259.662 41.668,259.646 41.747,259.417 42.000 M125.791 43.678 C 125.585 44.041,125.242 44.543,125.028 44.794 C 124.673 45.210,124.679 45.177,125.093 44.417 C 125.343 43.958,125.630 43.421,125.729 43.223 C 125.829 43.024,125.968 42.897,126.038 42.940 C 126.108 42.984,125.997 43.316,125.791 43.678 M134.242 43.987 C 134.366 44.188,133.457 44.833,133.049 44.833 C 132.464 44.833,132.279 44.460,132.704 44.133 C 133.107 43.822,134.083 43.730,134.242 43.987 M214.389 45.894 C 214.066 46.464,213.955 46.509,213.717 46.170 C 213.471 45.819,212.761 45.712,212.583 46.000 C 212.428 46.251,212.049 46.200,211.939 45.915 C 211.879 45.757,212.073 45.452,212.457 45.100 L 213.072 44.536 213.784 45.120 C 214.183 45.447,214.449 45.788,214.389 45.894 M215.667 45.167 C 215.667 45.258,215.559 45.333,215.427 45.333 C 215.294 45.333,215.140 45.258,215.083 45.167 C 215.027 45.075,215.135 45.000,215.323 45.000 C 215.512 45.000,215.667 45.075,215.667 45.167 M259.642 45.148 C 259.820 45.261,259.827 45.368,259.674 45.652 L 259.481 46.014 259.163 45.632 L 258.844 45.250 258.839 45.792 C 258.832 46.431,258.551 46.512,258.402 45.917 C 258.201 45.116,258.904 44.680,259.642 45.148 M270.535 45.500 C 270.581 45.899,270.628 45.915,271.641 45.887 C 272.825 45.853,272.985 45.776,272.725 45.367 C 272.394 44.846,270.472 44.963,270.535 45.500 M267.874 47.083 C 267.792 47.515,267.595 47.622,267.417 47.333 C 267.245 47.055,266.862 47.146,266.753 47.491 C 266.690 47.690,266.555 47.780,266.405 47.723 C 266.271 47.671,265.933 47.723,265.654 47.838 C 265.298 47.986,265.096 47.996,264.972 47.872 C 264.675 47.575,266.138 46.971,267.852 46.684 C 267.908 46.674,267.918 46.854,267.874 47.083 M126.452 47.481 C 126.723 48.029,126.739 48.176,126.553 48.430 C 126.432 48.595,126.333 48.904,126.333 49.115 C 126.333 49.573,126.299 49.578,125.566 49.231 C 125.254 49.083,124.811 48.997,124.583 49.041 C 124.338 49.088,124.171 49.044,124.178 48.935 C 124.196 48.652,124.475 48.057,124.488 48.274 C 124.538 49.081,125.402 48.564,125.651 47.578 C 125.881 46.665,126.039 46.645,126.452 47.481 M264.239 49.844 C 264.440 49.655,264.712 49.505,264.844 49.511 C 264.976 49.516,264.906 49.592,264.690 49.679 C 264.360 49.811,264.308 49.929,264.365 50.418 C 264.402 50.738,264.373 51.000,264.300 51.000 C 264.227 51.000,264.167 50.892,264.167 50.760 C 264.167 50.381,263.803 50.255,263.581 50.558 C 263.260 50.998,263.167 50.886,263.167 50.061 L 263.167 49.288 263.520 49.738 L 263.874 50.187 264.239 49.844 M279.833 53.319 C 279.833 53.731,281.121 54.006,281.351 53.643 C 281.569 53.299,281.533 53.215,281.125 53.105 C 280.350 52.897,279.833 52.983,279.833 53.319 M255.639 58.774 C 255.604 58.959,255.413 59.103,255.165 59.132 C 254.601 59.198,254.499 58.386,255.060 58.292 C 255.515 58.217,255.714 58.382,255.639 58.774 M263.704 58.708 C 263.091 59.133,262.863 59.718,263.168 60.085 C 263.492 60.476,263.833 60.383,263.833 59.905 C 263.833 59.550,263.891 59.496,264.175 59.586 C 264.878 59.809,265.323 58.851,264.678 58.506 C 264.267 58.286,264.334 58.272,263.704 58.708 M122.833 58.872 C 122.833 58.974,122.936 59.175,123.061 59.320 C 123.315 59.614,123.576 61.000,123.377 61.000 C 122.819 61.000,122.039 59.016,122.440 58.616 C 122.581 58.474,122.833 58.638,122.833 58.872 M255.463 60.259 C 255.965 60.611,255.979 61.090,255.479 60.822 C 255.207 60.677,255.094 60.681,254.996 60.840 C 254.856 61.067,254.333 60.943,254.333 60.684 C 254.333 60.144,254.961 59.908,255.463 60.259 M121.194 66.186 C 120.959 67.203,120.945 67.946,121.158 68.078 C 121.364 68.205,121.665 67.105,121.666 66.218 C 121.667 65.220,121.421 65.204,121.194 66.186 M129.344 66.279 C 130.215 67.066,130.466 67.593,130.323 68.333 C 130.255 68.687,130.202 68.773,130.189 68.552 C 130.155 67.995,129.882 67.943,129.695 68.457 C 129.568 68.809,129.550 68.642,129.618 67.750 C 129.701 66.656,129.689 66.604,129.436 66.917 L 129.167 67.250 128.904 66.917 C 127.901 65.644,128.185 65.232,129.344 66.279 M243.057 66.760 C 243.002 66.902,242.848 66.977,242.715 66.926 C 242.582 66.875,242.385 66.828,242.278 66.822 C 242.049 66.808,242.656 66.529,242.953 66.512 C 243.070 66.505,243.114 66.610,243.057 66.760 M214.694 67.292 C 214.643 67.738,214.461 68.060,214.059 68.417 C 213.692 68.743,213.274 69.437,212.855 70.417 C 212.126 72.122,211.910 72.248,210.586 71.742 C 209.484 71.321,210.477 70.228,212.375 69.771 C 212.993 69.622,212.952 69.283,212.273 68.917 L 211.713 68.616 212.231 68.166 C 213.107 67.405,213.482 67.265,213.819 67.570 C 214.230 67.942,214.333 67.900,214.333 67.361 C 214.333 66.903,214.445 66.667,214.661 66.667 C 214.719 66.667,214.734 66.948,214.694 67.292 M239.964 68.881 C 239.722 69.193,239.653 69.212,239.515 69.005 C 239.296 68.676,239.186 68.819,239.130 69.509 C 239.067 70.282,240.087 70.512,240.244 69.760 C 240.293 69.525,240.372 69.146,240.420 68.917 C 240.526 68.405,240.344 68.391,239.964 68.881 M245.343 69.126 C 244.706 69.641,244.687 70.667,245.315 70.667 C 245.903 70.667,246.711 69.810,246.634 69.269 C 246.567 68.799,245.844 68.719,245.343 69.126 M130.109 69.780 C 129.886 70.003,129.660 69.626,129.867 69.376 C 130.062 69.141,130.089 69.143,130.140 69.404 C 130.171 69.563,130.157 69.732,130.109 69.780 M237.333 69.316 C 236.801 69.464,236.737 70.214,237.250 70.303 C 237.433 70.335,237.677 70.482,237.792 70.629 C 237.966 70.853,238.000 70.756,238.000 70.032 C 238.000 69.556,237.944 69.174,237.875 69.183 C 237.806 69.192,237.563 69.252,237.333 69.316 M262.398 72.239 C 262.278 72.550,262.463 73.667,262.634 73.667 C 262.821 73.667,263.198 72.702,263.136 72.380 C 263.063 72.000,262.529 71.898,262.398 72.239 M137.491 73.505 C 137.744 73.369,137.810 73.414,137.877 73.764 C 137.939 74.089,137.900 74.164,137.707 74.090 C 137.570 74.037,137.135 73.913,136.742 73.814 C 135.438 73.486,134.922 72.503,136.052 72.497 C 136.344 72.496,136.696 72.423,136.833 72.336 C 137.040 72.204,137.092 72.306,137.134 72.923 C 137.180 73.588,137.218 73.651,137.491 73.505 M257.611 72.958 C 257.539 73.073,257.222 73.167,256.907 73.167 C 256.381 73.167,256.333 73.208,256.333 73.667 C 256.333 74.339,257.310 74.416,257.655 73.772 C 257.885 73.343,257.844 72.588,257.611 72.958 M258.833 73.253 C 258.833 73.618,258.888 73.659,259.250 73.568 C 259.638 73.471,259.667 73.506,259.667 74.077 C 259.667 74.622,259.694 74.663,259.917 74.440 C 260.475 73.882,260.004 72.833,259.195 72.833 C 258.920 72.833,258.833 72.933,258.833 73.253 M126.833 73.730 C 126.833 74.466,127.154 74.964,127.493 74.755 C 127.889 74.509,127.541 73.000,127.087 73.000 C 126.898 73.000,126.833 73.187,126.833 73.730 M140.178 73.435 C 140.676 73.582,141.571 73.988,142.167 74.335 C 142.762 74.683,143.419 75.018,143.625 75.078 C 143.831 75.139,144.000 75.252,144.000 75.329 C 144.000 75.491,145.414 76.000,145.863 76.000 C 146.232 76.000,146.242 76.150,145.918 76.773 C 145.781 77.035,145.668 77.156,145.668 77.042 C 145.667 76.927,145.563 76.833,145.436 76.833 C 145.309 76.833,145.166 76.683,145.118 76.500 C 144.993 76.022,144.635 76.090,144.250 76.665 C 143.652 77.559,143.073 77.617,141.130 76.979 C 140.606 76.807,140.142 76.667,140.099 76.667 C 140.055 76.667,139.997 76.948,139.968 77.292 C 139.923 77.842,139.859 77.923,139.437 77.971 C 138.974 78.024,138.962 78.007,139.066 77.450 C 139.180 76.844,138.439 76.402,138.128 76.890 C 138.041 77.027,138.004 77.016,138.003 76.855 C 138.000 76.665,137.955 76.663,137.737 76.844 C 137.520 77.025,137.449 77.021,137.323 76.823 C 137.009 76.327,137.154 76.167,137.917 76.167 C 138.744 76.167,138.841 75.979,138.490 75.056 C 138.361 74.718,138.364 74.573,138.500 74.528 C 138.818 74.422,139.032 73.656,138.817 73.396 C 138.553 73.079,139.020 73.092,140.178 73.435 M222.667 74.896 C 222.667 75.829,223.018 75.930,223.719 75.199 C 224.383 74.506,224.234 73.940,223.493 74.337 C 223.233 74.476,223.085 74.473,222.906 74.324 C 222.704 74.157,222.667 74.246,222.667 74.896 M248.000 75.139 C 248.000 76.100,248.091 76.228,248.514 75.866 C 248.917 75.521,248.924 74.967,248.529 74.609 C 248.069 74.193,248.000 74.262,248.000 75.139 M218.533 74.700 C 218.209 75.025,218.280 75.833,218.633 75.833 C 218.798 75.833,219.023 75.743,219.133 75.633 C 219.289 75.478,219.378 75.478,219.533 75.633 C 219.870 75.970,220.042 75.857,219.926 75.375 C 219.742 74.613,218.986 74.247,218.533 74.700 M140.834 74.885 C 139.769 75.416,139.989 76.210,141.204 76.220 C 144.070 76.245,144.339 75.403,141.664 74.778 C 141.434 74.724,141.060 74.772,140.834 74.885 M215.500 75.250 C 215.500 75.479,215.425 75.667,215.333 75.667 C 215.242 75.667,215.167 75.479,215.167 75.250 C 215.167 75.021,215.242 74.833,215.333 74.833 C 215.425 74.833,215.500 75.021,215.500 75.250 M245.759 75.537 C 245.617 75.741,245.500 76.113,245.500 76.365 L 245.500 76.822 246.084 76.478 C 246.794 76.058,246.885 75.925,246.750 75.499 C 246.609 75.056,246.082 75.077,245.759 75.537 M128.444 75.944 C 128.201 76.188,128.325 77.667,128.589 77.667 C 128.729 77.667,128.895 77.535,128.957 77.375 C 129.142 76.901,129.500 79.977,129.389 81.083 L 129.289 82.083 129.746 81.667 C 130.543 80.939,131.443 78.897,131.122 78.542 C 130.877 78.272,130.885 78.250,131.220 78.250 C 131.559 78.249,131.579 78.316,131.526 79.226 C 131.461 80.331,131.703 80.790,132.081 80.279 C 132.290 79.995,132.325 80.014,132.581 80.555 C 133.219 81.899,135.167 82.283,135.167 81.065 C 135.167 80.054,134.532 79.482,133.139 79.241 C 132.440 79.120,131.874 78.595,131.689 77.897 C 131.471 77.075,129.570 76.195,129.466 76.868 C 129.413 77.203,129.360 77.163,129.033 76.542 C 128.637 75.791,128.618 75.771,128.444 75.944 M219.875 76.703 C 219.442 76.912,219.337 77.598,219.764 77.434 C 219.909 77.379,220.284 77.333,220.597 77.333 C 221.045 77.333,221.167 77.266,221.167 77.018 C 221.167 76.517,220.565 76.371,219.875 76.703 M144.833 78.573 C 144.833 78.889,144.549 79.055,144.223 78.929 C 144.012 78.849,144.002 78.782,144.168 78.581 C 144.431 78.265,144.833 78.260,144.833 78.573 M216.913 79.625 C 217.054 80.378,217.113 80.453,217.369 80.197 C 217.661 79.906,217.833 79.957,217.833 80.333 C 217.833 80.731,218.089 80.775,218.232 80.403 C 218.495 79.719,217.982 79.000,217.231 79.000 C 216.819 79.000,216.802 79.033,216.913 79.625 M219.270 79.453 C 219.042 79.680,219.176 80.263,219.460 80.284 C 219.621 80.297,219.865 80.331,220.002 80.362 C 220.171 80.399,220.265 80.258,220.299 79.917 C 220.346 79.431,219.619 79.103,219.270 79.453 M139.448 79.760 C 139.477 79.846,139.274 79.917,138.997 79.917 C 138.551 79.917,138.526 79.893,138.782 79.706 C 139.089 79.482,139.363 79.504,139.448 79.760 M181.510 80.224 C 180.326 80.644,180.078 80.930,180.751 81.098 C 181.516 81.291,184.146 80.424,183.812 80.090 C 183.536 79.814,182.497 79.875,181.510 80.224 M137.934 80.693 C 137.669 81.071,137.667 81.072,137.667 80.718 C 137.667 80.522,137.760 80.328,137.875 80.287 C 138.205 80.169,138.221 80.283,137.934 80.693 M135.563 81.820 C 135.671 82.930,135.747 83.142,135.958 82.931 C 136.220 82.669,136.089 81.351,135.771 81.048 C 135.467 80.758,135.461 80.778,135.563 81.820 M149.363 81.380 C 149.266 81.498,149.108 81.798,149.014 82.047 C 148.919 82.296,148.765 82.500,148.671 82.500 C 148.472 82.500,148.440 84.315,148.634 84.619 C 148.954 85.122,149.431 84.644,149.800 83.448 C 150.210 82.119,150.246 81.833,150.000 81.833 C 149.908 81.833,149.833 81.683,149.833 81.500 C 149.833 81.120,149.624 81.066,149.363 81.380 M190.167 83.398 C 190.167 83.675,190.078 83.789,189.875 83.773 C 189.690 83.758,189.564 83.888,189.530 84.125 C 189.492 84.395,189.561 84.501,189.780 84.502 C 189.947 84.504,190.251 84.549,190.455 84.604 C 191.066 84.768,191.276 83.969,190.767 83.420 C 190.283 82.897,190.167 82.893,190.167 83.398 M135.995 87.032 C 135.992 87.335,135.879 87.729,135.745 87.907 C 135.428 88.325,135.417 89.333,135.729 89.333 C 135.855 89.333,136.006 89.093,136.065 88.800 C 136.124 88.506,136.319 88.110,136.498 87.919 C 136.910 87.480,137.015 86.752,136.667 86.746 C 136.529 86.743,136.323 86.682,136.208 86.611 C 136.058 86.516,135.999 86.633,135.995 87.032 M170.257 86.656 C 170.084 86.936,170.710 87.670,171.083 87.624 C 171.706 87.548,171.537 86.595,170.891 86.532 C 170.601 86.504,170.316 86.560,170.257 86.656 M168.282 86.940 C 168.219 87.003,168.167 87.228,168.167 87.439 C 168.167 87.902,167.839 88.096,166.783 88.254 C 166.095 88.357,165.989 88.423,166.033 88.723 C 166.173 89.692,168.052 89.688,169.587 88.715 C 170.679 88.023,170.426 87.333,169.081 87.333 C 168.862 87.333,168.619 87.219,168.541 87.079 C 168.462 86.939,168.346 86.876,168.282 86.940 M138.723 88.806 C 138.621 88.969,138.232 89.194,137.860 89.306 C 137.139 89.522,136.500 90.227,136.500 90.807 C 136.500 91.132,136.542 91.127,137.571 90.660 C 138.160 90.393,138.948 90.126,139.321 90.066 C 139.869 89.978,140.000 89.889,139.997 89.604 C 139.994 89.093,139.741 88.769,139.438 88.885 C 139.293 88.941,139.116 88.880,139.042 88.747 C 138.930 88.548,138.877 88.558,138.723 88.806 M147.444 90.278 C 147.222 90.500,147.343 90.832,147.742 91.093 C 148.256 91.430,148.833 91.272,148.833 90.794 C 148.833 90.602,148.786 90.492,148.728 90.550 C 148.670 90.608,148.466 90.545,148.274 90.411 C 147.897 90.147,147.620 90.102,147.444 90.278 M132.115 90.459 C 132.031 90.588,131.818 90.627,131.555 90.561 C 131.103 90.448,130.840 90.683,130.836 91.208 C 130.834 91.429,130.970 91.500,131.396 91.500 C 132.048 91.500,132.382 91.181,132.304 90.634 C 132.266 90.368,132.208 90.314,132.115 90.459 " stroke="none" fill="#040404" fill-rule="evenodd"></path><path id="path1" d="" stroke="none" fill="#080404" fill-rule="evenodd"></path><path id="path2" d="" stroke="none" fill="#080404" fill-rule="evenodd"></path><path id="path3" d="" stroke="none" fill="#080404" fill-rule="evenodd"></path><path id="path4" d="" stroke="none" fill="#080404" fill-rule="evenodd"></path><path id="path5" d="" stroke="none" fill="#080404" fill-rule="evenodd"></path><path id="path6" d="" stroke="none" fill="#080404" fill-rule="evenodd"></path><path id="path7" d="" stroke="none" fill="#080404" fill-rule="evenodd"></path><path id="path8" d="" stroke="none" fill="#080404" fill-rule="evenodd"></path></g></svg>